<?xml version="1.0" encoding="utf-8"?><svg viewBox="0 0 512 512" xmlns="http://www.w3.org/2000/svg" xmlns:xlink="http://www.w3.org/1999/xlink"><style>:root>svg{display:none}:root>svg:target{display:block}</style><svg fill="none" viewBox="0 0 22 22" id="cart" xmlns="http://www.w3.org/2000/svg"><path d="M20.003 6.812a.917.917 0 00-.753-.395H6.722l-1.058-2.54A1.828 1.828 0 003.972 2.75H1.833v1.833h2.139L8.32 15.02a.916.916 0 00.846.563H16.5a.919.919 0 00.859-.594l2.75-7.333a.916.916 0 00-.106-.844zm-4.138 6.938H9.778l-2.292-5.5h10.441l-2.062 5.5zM9.625 19.25a1.375 1.375 0 100-2.75 1.375 1.375 0 000 2.75zM16.042 19.25a1.375 1.375 0 100-2.75 1.375 1.375 0 000 2.75z" fill="#fff"/></svg><svg viewBox="0 0 512 512" fill="#fff" id="enter" xmlns="http://www.w3.org/2000/svg"><path d="M465.535.32C465.004.277 464.555 0 464 0H234.668c-35.285 0-64 28.715-64 64v21.332c0 11.777 9.555 21.336 21.332 21.336s21.332-9.559 21.332-21.336V64c0-11.754 9.578-21.332 21.336-21.332h99.39l-6.507 2.176c-17.278 5.972-28.883 22.25-28.883 40.488v320h-64c-11.758 0-21.336-9.578-21.336-21.332v-42.668c0-11.773-9.555-21.332-21.332-21.332s-21.332 9.559-21.332 21.332V384c0 35.285 28.715 64 64 64h64v21.332c0 23.531 19.133 42.668 42.664 42.668 4.566 0 8.898-.66 13.59-2.113l128.172-42.73c17.3-5.973 28.906-22.25 28.906-40.489v-384C512 17.793 490.559-1.707 465.535.32zm0 0"/><path d="M228.414 198.25l-85.332-85.332a21.327 21.327 0 00-23.254-4.629A21.364 21.364 0 00106.668 128v64H21.332C9.559 192 0 201.559 0 213.332c0 11.777 9.559 21.336 21.332 21.336h85.336v64a21.368 21.368 0 0013.16 19.71 21.334 21.334 0 0023.254-4.628l85.332-85.336c8.344-8.34 8.344-21.82 0-30.164zm0 0"/></svg><svg fill="none" viewBox="0 0 14 14" id="login" xmlns="http://www.w3.org/2000/svg"><path d="M5.25 1.167h5.25a1.17 1.17 0 011.167 1.166v9.334a1.17 1.17 0 01-1.167 1.166H5.25a1.17 1.17 0 01-1.167-1.166V10.5H5.25v1.167h5.25V2.333H5.25V3.5H4.083V2.333A1.17 1.17 0 015.25 1.167z" fill="#969696"/><path d="M5.886 9.094l.822.823L9.625 7 6.708 4.083l-.822.823 1.505 1.51H1.75v1.167h5.64L5.887 9.094z" fill="#969696"/></svg><svg fill="none" viewBox="0 0 16 16" id="phone" xmlns="http://www.w3.org/2000/svg"><path d="M11.6 14.667A10.28 10.28 0 011.333 4.4 3.067 3.067 0 014.4 1.333c.172-.001.344.015.513.047.164.024.325.064.48.12a.667.667 0 01.434.5l.913 4a.667.667 0 01-.173.613c-.087.094-.094.1-.914.527A6.607 6.607 0 008.9 10.4c.433-.827.44-.833.533-.92a.667.667 0 01.614-.173l4 .913a.667.667 0 01.48.433 2.89 2.89 0 01.166.994 3.067 3.067 0 01-3.093 3.02zm-7.2-12A1.74 1.74 0 002.667 4.4a8.94 8.94 0 008.933 8.933 1.74 1.74 0 001.733-1.733v-.22l-3.093-.713-.193.366c-.3.58-.52 1-1.08.774A7.9 7.9 0 014.18 7c-.24-.52.213-.76.787-1.06l.366-.18-.713-3.093H4.4z" fill="#969696"/></svg><svg fill="none" viewBox="0 0 22 22" id="search" xmlns="http://www.w3.org/2000/svg"><path d="M19.25 17.417l-4.725-4.725a6.417 6.417 0 10-1.833 1.834l4.725 4.724 1.833-1.833zM4.583 9.167a4.589 4.589 0 014.584-4.584 4.589 4.589 0 014.583 4.584 4.589 4.589 0 01-4.583 4.583 4.589 4.589 0 01-4.584-4.583z" fill="#fff"/></svg></svg>